<?xml version="1.0" standalone="no"?>
<!DOCTYPE svg PUBLIC "-//W3C//DTD SVG 20010904//EN"
 "http://www.w3.org/TR/2001/REC-SVG-20010904/DTD/svg10.dtd">
<svg version="1.0" xmlns="http://www.w3.org/2000/svg"
 width="886.000000pt" height="262.000000pt" viewBox="0 0 886.000000 262.000000"
 preserveAspectRatio="xMidYMid meet">

<g transform="translate(0.000000,262.000000) scale(0.100000,-0.100000)"
 stroke="none">
<path d="M488 1896 c-69 -26 -131 -83 -147 -135 -16 -55 -14 -137 5 -178 23
-47 74 -79 174 -109 137 -40 243 -76 267 -91 25 -16 53 -71 53 -103 0 -43 -31
-89 -74 -110 -91 -44 -279 -20 -380 48 l-45 31 -21 -26 c-29 -37 -25 -50 26
-83 86 -54 135 -65 289 -65 128 0 144 2 185 24 105 54 148 174 100 280 -38 82
-101 114 -354 177 -77 19 -110 40 -130 81 -20 42 -20 69 2 112 32 65 59 76
185 76 103 0 116 -2 164 -27 28 -15 55 -33 58 -39 8 -12 45 42 45 64 0 17 -63
52 -137 77 -79 27 -189 25 -265 -4z"/>
<path d="M1180 1790 l0 -130 50 0 50 0 0 85 0 85 231 0 230 0 -3 43 -3 42
-277 3 -278 2 0 -130z"/>
<path d="M1915 1898 c4 -13 15 -41 25 -63 33 -72 77 -178 124 -295 25 -63 63
-157 85 -209 l39 -94 21 48 c12 26 21 52 21 58 0 6 -24 72 -54 146 -30 75 -78
197 -107 271 -29 74 -57 141 -62 148 -5 6 -29 12 -54 12 -41 0 -44 -2 -38 -22z"/>
<path d="M2583 1903 c-4 -10 -29 -72 -56 -138 -27 -66 -52 -131 -57 -145 -9
-30 -127 -331 -176 -448 -19 -46 -34 -88 -34 -94 0 -5 19 -8 41 -6 l42 3 59
145 c33 80 78 190 99 245 22 55 52 127 66 160 43 102 113 278 113 287 0 4 -20
8 -45 8 -34 0 -47 -4 -52 -17z"/>
<path d="M2904 1907 c-2 -7 -3 -65 -2 -128 l3 -114 43 -3 42 -3 0 70 c0 110
-21 101 241 101 l229 0 0 45 0 45 -275 0 c-218 0 -277 -3 -281 -13z"/>
<path d="M3720 1889 c0 -31 27 -70 180 -259 30 -37 74 -92 98 -121 351 -442
344 -434 390 -437 l42 -3 -2 423 -3 423 -42 3 -43 3 0 -330 c0 -270 -2 -331
-13 -331 -12 0 -83 83 -202 235 -16 22 -43 55 -60 76 -16 20 -86 107 -153 193
-116 147 -126 156 -158 156 -31 0 -34 -2 -34 -31z"/>
<path d="M5045 1907 c-3 -7 -4 -154 -3 -327 l3 -315 42 -3 43 -3 2 283 3 283
167 3 168 2 35 -32 c83 -76 60 -211 -44 -254 -20 -8 -68 -14 -117 -14 l-84 0
0 -35 0 -35 108 0 c129 0 164 -14 200 -81 41 -77 15 -173 -57 -210 -19 -10
-88 -15 -246 -19 l-220 -5 0 -35 0 -35 230 0 c247 0 280 5 336 52 94 80 92
254 -3 327 -19 14 -40 26 -47 26 -27 0 -21 30 12 60 121 105 93 297 -52 361
-39 17 -67 19 -258 19 -162 0 -215 -3 -218 -13z"/>
<path d="M6383 1899 c-102 -34 -159 -99 -170 -189 -13 -115 31 -181 149 -223
40 -14 98 -31 128 -38 30 -6 60 -15 65 -19 6 -3 28 -12 50 -18 94 -27 136
-103 101 -185 -22 -55 -76 -76 -187 -77 -99 0 -188 25 -255 71 l-42 29 -23
-36 -22 -36 29 -24 c16 -13 58 -36 94 -51 61 -26 74 -27 210 -28 132 0 149 2
193 23 31 16 59 40 80 70 29 43 32 54 32 123 0 65 -4 81 -26 115 -15 23 -47
51 -77 67 -45 24 -89 38 -257 81 -107 27 -145 63 -145 136 1 53 14 80 55 112
25 20 43 23 126 26 82 3 104 0 150 -19 30 -12 61 -28 70 -36 24 -20 34 -16 52
22 16 34 16 34 -12 54 -16 11 -60 32 -98 46 -85 30 -190 32 -270 4z"/>
<path d="M7070 1888 c-1 -28 0 -707 0 -790 0 -26 3 -28 45 -28 l44 0 3 151 3
151 44 4 c25 2 46 5 47 7 1 1 -9 19 -22 40 -17 26 -31 37 -49 37 l-25 0 0 185
0 185 145 0 c155 0 180 -6 221 -52 63 -69 71 -166 20 -246 -32 -51 -74 -72
-146 -72 l-51 0 15 -28 c8 -16 34 -58 58 -94 24 -35 59 -91 78 -122 93 -152
87 -146 142 -146 64 0 71 -19 -77 210 -72 112 -71 106 -26 129 76 39 141 151
141 244 0 50 -49 153 -92 193 -18 17 -57 40 -87 52 -48 20 -72 22 -242 22
l-189 0 0 -32z"/>
<path d="M7947 1913 c-4 -3 -7 -147 -7 -320 l0 -313 45 0 45 0 0 320 0 320
-38 0 c-21 0 -42 -3 -45 -7z"/>
<path d="M3720 1367 l0 -297 45 0 45 0 0 238 -1 237 -44 59 -45 59 0 -296z"/>
<path d="M1180 1410 l0 -130 50 0 50 0 0 90 0 90 200 0 200 0 0 40 0 40 -250
0 -250 0 0 -130z"/>
<path d="M2907 1533 c-4 -3 -7 -62 -7 -130 l0 -123 45 0 45 0 0 74 c0 41 3 81
6 90 5 14 33 16 205 16 l199 0 0 40 0 40 -243 0 c-134 0 -247 -3 -250 -7z"/>
<path d="M1180 1110 l0 -40 283 2 282 3 0 35 0 35 -282 3 -283 2 0 -40z"/>
<path d="M2904 1136 c-3 -8 -4 -25 -2 -38 l3 -23 283 -3 282 -2 0 40 0 40
-280 0 c-234 0 -282 -2 -286 -14z"/>
<path d="M7942 1113 l3 -38 288 -3 287 -2 0 40 0 40 -291 0 -290 0 3 -37z"/>
<path d="M2410 505 c0 -149 2 -175 15 -175 12 0 15 15 15 74 0 58 3 75 16 80
40 16 54 6 100 -74 32 -56 51 -80 65 -80 10 0 19 2 19 5 0 2 -18 33 -40 67
-46 73 -48 85 -16 99 29 14 49 49 49 88 0 59 -55 91 -158 91 l-65 0 0 -175z
m162 131 c37 -16 29 -94 -12 -116 -11 -6 -42 -10 -68 -8 l-47 3 -3 63 c-3 57
-1 63 19 70 22 8 76 2 111 -12z"/>
<path d="M2800 505 l0 -175 95 0 c78 0 95 3 95 15 0 12 -14 15 -67 15 -38 0
-74 4 -81 9 -9 5 -12 26 -10 67 l3 59 68 3 c89 4 86 25 -4 32 l-64 5 0 55 0
55 78 3 c59 2 77 6 77 17 0 12 -18 15 -95 15 l-95 0 0 -175z"/>
<path d="M3132 668 c3 -7 27 -15 54 -18 l49 -5 3 -157 c2 -130 5 -158 17 -158
12 0 15 28 17 158 l3 157 49 5 c27 3 51 11 54 18 3 9 -26 12 -123 12 -97 0
-126 -3 -123 -12z"/>
<path d="M3540 505 l0 -176 95 3 c115 4 126 21 18 28 l-78 5 0 65 0 65 63 3
c46 2 62 7 62 17 0 12 -15 15 -65 15 l-66 0 3 58 3 57 78 3 c59 2 77 6 77 17
0 12 -18 15 -95 15 l-95 0 0 -175z"/>
<path d="M3904 667 c-2 -7 -3 -85 -2 -172 3 -134 5 -160 18 -160 13 0 15 22
14 143 0 87 3 139 9 133 5 -5 44 -69 86 -142 58 -100 83 -135 99 -137 22 -3
22 -3 22 172 0 171 -1 176 -20 176 -20 0 -21 -5 -20 -132 1 -73 1 -140 0 -148
0 -16 -18 10 -72 110 -83 155 -119 196 -134 157z"/>
<path d="M4405 670 c-53 -22 -85 -83 -85 -166 0 -101 45 -162 126 -172 51 -5
114 19 114 45 0 17 -20 16 -44 -2 -35 -26 -84 -19 -121 18 -38 38 -51 85 -41
152 13 83 94 135 155 99 38 -22 54 -9 22 17 -24 20 -89 25 -126 9z"/>
<path d="M4730 505 c0 -149 2 -175 15 -175 13 0 15 26 15 175 0 149 -2 175
-15 175 -13 0 -15 -26 -15 -175z"/>
<path d="M4986 647 c-43 -41 -56 -73 -56 -140 1 -112 66 -184 161 -175 83 8
129 72 129 178 0 108 -53 170 -145 170 -47 0 -58 -4 -89 -33z m134 -2 c47 -24
63 -66 58 -153 -3 -69 -6 -76 -36 -103 -59 -53 -140 -29 -162 49 -23 83 -5
161 45 200 33 26 55 27 95 7z"/>
<path d="M5390 506 c0 -150 2 -176 15 -176 13 0 15 22 15 140 0 77 4 140 8
140 5 0 41 -57 81 -127 82 -144 93 -158 115 -150 14 6 16 31 16 177 0 163 -1
170 -20 170 -19 0 -20 -7 -20 -147 -1 -136 -2 -146 -15 -123 -9 14 -46 79 -84
145 -50 87 -74 121 -90 123 -21 3 -21 2 -21 -172z"/>
<path d="M5825 660 c-7 -22 -5 -284 2 -312 4 -16 17 -18 99 -18 76 0 94 3 94
15 0 11 -18 15 -77 17 l-78 3 -3 68 -3 67 66 0 c49 0 66 3 63 13 -3 7 -28 13
-66 15 l-62 3 0 59 0 60 80 0 c64 0 80 3 80 15 0 12 -17 15 -94 15 -86 0 -95
-2 -101 -20z"/>
<path d="M6209 651 c-51 -51 -29 -113 53 -146 69 -27 98 -53 98 -85 0 -18 -8
-34 -22 -44 -28 -20 -88 -21 -114 -1 -22 17 -54 20 -54 5 0 -20 65 -50 108
-50 53 0 94 20 110 55 27 60 2 99 -93 144 -36 16 -68 37 -71 46 -11 28 5 62
36 75 26 11 37 10 70 -5 47 -21 65 -12 31 16 -16 13 -39 19 -73 19 -41 0 -54
-5 -79 -29z"/>
</g>
</svg>
