<?xml version="1.0" standalone="no"?>
<!DOCTYPE svg PUBLIC "-//W3C//DTD SVG 20010904//EN"
 "http://www.w3.org/TR/2001/REC-SVG-20010904/DTD/svg10.dtd">
<svg version="1.0" xmlns="http://www.w3.org/2000/svg"
 width="1111.000000pt" height="232.000000pt" viewBox="0 0 1111.000000 232.000000"
 preserveAspectRatio="xMidYMid meet">

<g transform="translate(0.000000,232.000000) scale(0.100000,-0.100000)"
 stroke="none">
<path d="M457 2208 c-86 -8 -182 -52 -237 -109 -66 -68 -74 -91 -75 -199 0
-177 33 -207 344 -306 283 -91 293 -97 322 -192 24 -83 -32 -167 -133 -197
-137 -40 -358 3 -492 98 l-29 21 -29 -34 c-15 -19 -28 -40 -28 -47 0 -21 52
-61 126 -98 90 -45 193 -59 374 -53 120 5 141 8 186 31 53 27 111 84 141 139
27 50 25 189 -4 243 -51 95 -115 129 -391 206 -165 46 -186 55 -224 96 -52 56
-55 134 -9 210 34 55 70 67 216 71 151 4 192 -4 265 -53 29 -19 56 -32 61 -29
16 10 48 80 41 91 -12 18 -105 69 -162 88 -68 23 -174 32 -263 23z"/>
<path d="M1270 2046 l0 -176 71 0 72 0 -6 74 c-3 41 -3 93 0 115 l6 41 303 0
304 0 0 43 c0 23 -4 47 -8 53 -5 8 -119 14 -374 19 l-368 7 0 -176z"/>
<path d="M2255 2208 c-6 -15 9 -53 112 -293 33 -77 103 -244 154 -372 51 -128
96 -229 100 -225 20 24 50 125 45 149 -10 42 -275 708 -289 727 -17 23 -114
34 -122 14z"/>
<path d="M3170 2211 c-22 -6 -37 -37 -123 -256 -53 -138 -149 -380 -211 -540
-63 -159 -116 -298 -120 -308 -5 -16 0 -18 51 -15 l57 3 68 165 c206 499 379
940 373 949 -7 12 -56 13 -95 2z"/>
<path d="M3615 2211 l-40 -6 -3 -162 c-2 -134 0 -163 11 -163 8 0 35 -3 61 -6
l46 -7 0 101 c0 95 1 102 23 114 16 10 99 14 310 16 l287 4 0 59 0 59 -327 -1
c-181 -1 -346 -5 -368 -8z"/>
<path d="M4667 2213 c-12 -12 -7 -53 10 -86 23 -45 69 -106 312 -407 403 -501
490 -606 513 -618 13 -6 41 -12 63 -14 l40 -3 -3 561 -2 561 -47 7 c-25 3 -52
6 -59 6 -12 0 -14 -75 -14 -434 0 -248 -4 -437 -9 -440 -14 -9 -95 85 -406
474 -161 201 -304 373 -318 383 -27 17 -68 23 -80 10z"/>
<path d="M6460 2212 l-35 -7 -3 -432 -2 -433 60 0 60 0 0 374 0 373 219 8 220
7 36 -28 c140 -106 103 -318 -64 -364 -20 -5 -82 -10 -138 -10 l-103 0 0 -50
0 -50 143 0 c195 -1 241 -23 282 -141 27 -75 12 -141 -44 -201 -49 -53 -67
-56 -398 -64 l-273 -7 0 -50 0 -50 313 6 c203 4 328 10 357 18 63 18 141 97
165 168 46 140 -14 298 -132 348 -18 7 -33 20 -33 29 0 8 20 36 44 62 86 93
115 199 82 300 -23 69 -91 143 -158 172 -50 22 -67 24 -308 26 -140 1 -271 0
-290 -4z"/>
<path d="M8315 2209 c-85 -8 -171 -40 -228 -83 -113 -86 -142 -292 -55 -392
46 -52 99 -79 238 -119 189 -56 272 -86 308 -113 97 -71 98 -203 1 -274 -39
-29 -170 -42 -277 -28 -104 13 -155 31 -242 83 l-65 39 -22 -29 c-50 -62 -38
-84 82 -141 114 -55 127 -57 335 -57 193 0 195 0 241 27 52 30 125 106 139
144 6 14 10 66 10 116 0 105 -13 140 -72 194 -56 50 -118 76 -293 124 -228 62
-288 98 -301 182 -10 58 4 106 42 148 47 51 84 62 223 64 l116 1 92 -44 c101
-48 110 -47 133 9 15 37 5 52 -59 85 -110 55 -220 75 -346 64z"/>
<path d="M9122 1659 l3 -564 53 -9 c29 -5 55 -6 58 -3 3 3 8 95 11 205 l6 200
55 5 c30 3 56 8 59 11 3 2 -9 25 -26 49 -21 31 -40 47 -61 52 l-30 7 0 245 0
246 188 -5 c204 -5 240 -13 288 -65 90 -96 97 -244 17 -350 -39 -51 -92 -73
-180 -73 l-73 0 54 -87 c101 -165 236 -376 258 -404 19 -22 34 -29 81 -34 86
-10 85 -7 -73 242 -55 86 -100 164 -100 173 0 8 16 24 35 34 48 26 118 103
148 163 14 27 31 77 37 112 10 55 9 70 -10 125 -11 34 -39 91 -63 127 -38 58
-50 68 -130 109 l-88 44 -260 4 -259 4 2 -563z"/>
<path d="M10302 2212 c-9 -6 -14 -107 -19 -431 l-6 -422 61 2 62 2 0 429 0
428 -42 0 c-24 0 -49 -4 -56 -8z"/>
<path d="M4660 1482 l0 -392 60 0 60 0 0 313 -1 312 -59 79 -60 79 0 -391z"/>
<path d="M1270 1535 l0 -174 70 1 70 1 0 119 0 118 133 1 c72 0 192 0 265 0
l132 -2 0 56 0 55 -335 0 -335 0 0 -175z"/>
<path d="M3589 1703 c-13 -3 -17 -27 -22 -131 -4 -70 -7 -146 -7 -169 l0 -42
65 2 65 1 0 113 c0 109 1 113 23 118 12 2 132 6 267 7 l245 3 3 53 3 52 -313
-1 c-172 -1 -320 -3 -329 -6z"/>
<path d="M1270 1140 l0 -50 380 0 380 0 0 50 0 50 -380 0 -380 0 0 -50z"/>
<path d="M3598 1183 c-26 -4 -28 -8 -28 -48 l0 -45 380 -2 380 -3 0 53 0 52
-352 -1 c-194 -1 -365 -4 -380 -6z"/>
<path d="M10284 1174 c3 -9 6 -31 6 -50 l0 -34 385 0 385 0 0 50 0 50 -391 0
c-353 0 -391 -2 -385 -16z"/>
<path d="M2933 562 c-23 -3 -23 -3 -23 -207 0 -191 8 -263 28 -251 5 3 12 47
15 97 6 95 13 109 53 109 26 0 59 -36 118 -128 44 -70 64 -88 85 -80 6 1 -12
41 -39 88 -28 47 -50 94 -50 105 0 12 12 28 31 39 34 20 59 69 59 116 0 82
-127 133 -277 112z m197 -61 c53 -38 26 -141 -40 -155 -18 -3 -54 -6 -81 -6
-47 0 -49 1 -49 29 0 15 -3 49 -6 73 -5 39 -3 49 16 68 19 19 29 21 79 15 31
-3 67 -14 81 -24z"/>
<path d="M3437 563 c-4 -3 -7 -109 -7 -235 l0 -229 123 3 c100 3 122 6 122 18
0 12 -18 16 -85 20 -47 3 -91 9 -97 13 -9 6 -13 35 -13 86 l0 78 81 6 c44 4
85 10 91 13 17 11 -25 23 -103 30 l-69 7 0 72 0 72 97 6 c89 6 127 17 106 30
-14 9 -239 18 -246 10z"/>
<path d="M4420 335 l0 -238 117 7 c64 3 119 8 121 11 12 12 -13 18 -98 23
l-90 5 0 88 0 89 48 1 c63 2 104 11 109 26 3 7 -24 13 -81 18 l-86 7 0 73 0
72 96 6 c84 5 128 17 113 31 -2 2 -59 7 -126 11 l-123 8 0 -238z"/>
<path d="M4911 557 c-12 -12 -14 -300 -3 -397 13 -107 27 -57 36 127 4 101 11
181 15 179 4 -3 52 -80 106 -172 96 -159 132 -203 155 -189 6 4 10 83 10 224
0 218 -4 246 -36 234 -11 -4 -14 -42 -14 -190 0 -116 -4 -182 -10 -178 -5 3
-35 52 -66 108 -78 140 -152 254 -168 260 -8 3 -19 0 -25 -6z"/>
<path d="M6015 551 c-8 -28 -9 -427 0 -441 19 -31 25 20 25 218 0 205 -8 275
-25 223z"/>
<path d="M6394 556 c-43 -19 -99 -89 -114 -142 -16 -58 -8 -149 18 -201 74
-144 264 -148 333 -6 33 66 34 198 2 258 -35 68 -67 87 -158 99 -33 4 -60 1
-81 -8z m130 -39 c58 -33 76 -75 76 -179 0 -105 -8 -128 -56 -165 -29 -22 -48
-28 -85 -28 -89 0 -135 77 -127 213 4 81 35 138 89 165 44 22 56 21 103 -6z"/>
<path d="M7174 559 c-4 -7 -10 -93 -13 -192 l-6 -179 -59 103 c-99 173 -165
269 -186 269 -15 0 -19 -11 -24 -87 -7 -115 6 -369 19 -366 6 2 14 80 20 185
l10 183 21 -30 c12 -16 47 -75 79 -130 123 -212 158 -248 176 -185 11 41 10
399 -1 421 -12 22 -25 24 -36 8z"/>
<path d="M7508 563 c-48 -8 -50 -17 -46 -238 2 -169 6 -207 18 -215 22 -14
227 -13 236 1 12 20 -20 29 -108 29 l-88 0 0 29 c0 15 -3 55 -6 88 l-7 60 87
8 c82 6 104 16 70 29 -9 3 -30 6 -47 6 -18 0 -49 3 -69 6 l-38 7 0 72 0 73
105 7 c95 6 138 18 103 29 -21 7 -181 14 -210 9z"/>
<path d="M8035 562 c-31 -11 -49 -24 -73 -56 -49 -64 -14 -124 107 -186 89
-44 104 -59 104 -101 0 -70 -83 -97 -177 -58 -41 16 -59 20 -67 12 -8 -8 0
-19 30 -39 111 -73 266 -20 266 91 0 56 -22 80 -127 136 -92 50 -113 74 -99
112 21 54 74 69 151 42 24 -8 46 -13 49 -9 11 11 -50 54 -77 54 -15 0 -36 2
-47 4 -11 3 -29 1 -40 -2z"/>
<path d="M3884 545 c10 -7 42 -17 71 -20 l52 -7 7 -186 c7 -190 12 -232 26
-232 15 0 20 64 20 240 l0 177 54 7 c30 3 61 9 70 12 44 17 0 24 -151 24 -147
-1 -166 -2 -149 -15z"/>
<path d="M5554 541 c-62 -38 -94 -108 -94 -205 0 -137 55 -215 163 -233 65
-10 178 40 151 67 -8 8 -23 5 -56 -11 -62 -30 -110 -20 -160 32 -62 65 -75
157 -33 246 39 85 108 113 192 78 46 -20 56 -10 20 21 -37 31 -135 34 -183 5z"/>
</g>
</svg>
